<?xml version="1.0" encoding="UTF-8" standalone="no"?>
<svg
   version="1.1"
   viewBox="0 0 16 16"
   id="svg2"
   sodipodi:docname="account-nextcloud.svg"
   width="16"
   height="16"
   inkscape:version="1.4.4 (unknown)"
   xmlns:inkscape="http://www.inkscape.org/namespaces/inkscape"
   xmlns:sodipodi="http://sodipodi.sourceforge.net/DTD/sodipodi-0.dtd"
   xmlns:xlink="http://www.w3.org/1999/xlink"
   xmlns="http://www.w3.org/2000/svg"
   xmlns:svg="http://www.w3.org/2000/svg">
  <sodipodi:namedview
     id="namedview2"
     pagecolor="#ffffff"
     bordercolor="#000000"
     borderopacity="0.25"
     inkscape:showpageshadow="2"
     inkscape:pageopacity="0.0"
     inkscape:pagecheckerboard="0"
     inkscape:deskcolor="#d1d1d1"
     inkscape:zoom="11.828125"
     inkscape:cx="21.47424"
     inkscape:cy="18.472919"
     inkscape:window-width="1920"
     inkscape:window-height="994"
     inkscape:window-x="0"
     inkscape:window-y="0"
     inkscape:window-maximized="1"
     inkscape:current-layer="svg2" />
  <defs
     id="defs2">
    <linearGradient
       id="linearGradient2"
       inkscape:collect="always">
      <stop
         style="stop-color:#1ad1ff;stop-opacity:1;"
         offset="0"
         id="stop3" />
      <stop
         style="stop-color:#66a3ff;stop-opacity:1;"
         offset="1"
         id="stop4" />
    </linearGradient>
    <linearGradient
       id="a"
       y2="75.072922"
       gradientTransform="matrix(0.80960561,0,0,0.40624608,-15.954693,-18.483818)"
       x1="19.706747"
       y1="55.310211"
       x2="39.46946"
       gradientUnits="userSpaceOnUse">
      <stop
         stop-color="#00fffa"
         offset="0"
         id="stop1" />
      <stop
         stop-color="#0078ff"
         offset="1"
         id="stop2" />
    </linearGradient>
    <linearGradient
       inkscape:collect="always"
       xlink:href="#linearGradient2"
       id="linearGradient4"
       x1="0"
       y1="7.9999998"
       x2="16"
       y2="7.9999998"
       gradientUnits="userSpaceOnUse" />
  </defs>
  <path
     d="M 7.9716119,3.9858033 A 3.9972759,3.9972759 0 0 0 4.7692032,5.5629213 2.9477759,2.9477759 0 0 0 2.9827592,4.9613223 C 1.3196172,4.9613223 0,6.3371423 0,7.9429343 0,9.5487273 1.3769669,10.924547 2.9827592,10.924547 a 2.924836,2.924836 0 0 0 1.7239328,-0.572351 3.9915409,3.9915409 0 0 0 3.2649199,1.661995 3.9915409,3.9915409 0 0 0 3.2849921,-1.690096 2.924836,2.924836 0 0 0 1.761784,0.600452 C 14.68153,10.924547 16,9.5487273 16,7.9429343 16,6.3371423 14.68153,4.9613223 13.018388,4.9613223 a 2.9535109,2.9535109 0 0 0 -1.824869,0.6297 3.9915409,3.9915409 0 0 0 -3.2224806,-1.605219 z m 0,2.007241 c 1.0896448,0 2.0072404,0.917595 2.0072404,2.00724 0,1.089645 -0.9175956,2.0072397 -2.0072404,2.0072397 -1.0896448,0 -2.0072404,-0.9175947 -2.0072404,-2.0072397 0,-1.089645 0.9175956,-2.00724 2.0072404,-2.00724 m -4.9888527,0.975518 a 1.0265601,1.0265601 0 0 1 0.9858418,0.723754 4.0144808,4.0144808 0 0 0 0,0.615936 1.0265601,1.0265601 0 0 1 -0.9858418,0.724901 c -0.5734972,0 -1.0328685,-0.458798 -1.0328685,-1.032295 0,-0.573498 0.4587978,-1.032296 1.0328685,-1.032296 z m 10.0362018,0 c 0.573498,0 1.031722,0.458225 1.031722,1.031722 0,0.573497 -0.458224,1.032869 -1.031722,1.032869 -0.573497,0 -1.032868,-0.458798 -1.032868,-1.032869 0,-0.574071 0.458797,-1.031722 1.032868,-1.031722"
     fill="url(#a)"
     id="path2"
     style="fill:url(#linearGradient4);stroke-width:0.573497;fill-opacity:1" />
</svg>
