<?xml version="1.0" encoding="UTF-8" standalone="no"?>
<svg
   version="1.1"
   viewBox="0 0 16 16"
   id="svg12"
   sodipodi:docname="boxes.svg"
   width="16"
   height="16"
   inkscape:version="1.4.4 (unknown)"
   xmlns:inkscape="http://www.inkscape.org/namespaces/inkscape"
   xmlns:sodipodi="http://sodipodi.sourceforge.net/DTD/sodipodi-0.dtd"
   xmlns:xlink="http://www.w3.org/1999/xlink"
   xmlns="http://www.w3.org/2000/svg"
   xmlns:svg="http://www.w3.org/2000/svg">
  <sodipodi:namedview
     id="namedview12"
     pagecolor="#ffffff"
     bordercolor="#000000"
     borderopacity="0.25"
     inkscape:showpageshadow="2"
     inkscape:pageopacity="0.0"
     inkscape:pagecheckerboard="0"
     inkscape:deskcolor="#d1d1d1"
     inkscape:zoom="16.727495"
     inkscape:cx="7.114036"
     inkscape:cy="-4.214618"
     inkscape:window-width="1920"
     inkscape:window-height="994"
     inkscape:window-x="0"
     inkscape:window-y="0"
     inkscape:window-maximized="1"
     inkscape:current-layer="svg12" />
  <defs
     id="defs4">
    <linearGradient
       id="a"
       y1="1">
      <stop
         stop-color="#a93aff"
         offset="0"
         id="stop1" />
      <stop
         stop-color="#ff81ff"
         offset="1"
         id="stop2" />
    </linearGradient>
    <linearGradient
       id="b"
       y1="11.930139"
       gradientTransform="matrix(1.5358053,0,0,1.5360271,-6.5015327,-6.4932524)"
       x1="5.0043612"
       x2="11.930861"
       y2="5.0036387"
       gradientUnits="userSpaceOnUse">
      <stop
         stop-color="#5570ff"
         offset="0"
         id="stop3"
         style="stop-color:#d4aa00;stop-opacity:1" />
      <stop
         stop-color="#4dd3ff"
         offset="1"
         id="stop4"
         style="stop-color:#ffcc00;stop-opacity:1" />
    </linearGradient>
    <linearGradient
       inkscape:collect="always"
       xlink:href="#a"
       id="linearGradient12"
       y1="12.701748"
       gradientTransform="matrix(1.5362482,0,0,1.5355841,-6.5015327,-6.4932524)"
       x1="10.383754"
       x2="12.693255"
       y2="10.392247"
       gradientUnits="userSpaceOnUse" />
    <linearGradient
       inkscape:collect="always"
       xlink:href="#a"
       id="linearGradient13"
       y1="12.698999"
       x1="4.2329998"
       x2="6.5420008"
       y2="10.389999"
       gradientUnits="userSpaceOnUse"
       gradientTransform="matrix(1.535916,0,0,1.5359163,-6.5015327,-6.4932524)" />
    <linearGradient
       inkscape:collect="always"
       xlink:href="#a"
       id="linearGradient14"
       y1="10.395401"
       gradientTransform="matrix(1.5365815,0,0,1.5352511,-6.5015327,-6.4932524)"
       x1="9.231801"
       x2="10.386201"
       y2="9.2410011"
       gradientUnits="userSpaceOnUse" />
    <linearGradient
       inkscape:collect="always"
       xlink:href="#a"
       id="linearGradient15"
       y1="10.3909"
       x1="6.5433002"
       x2="7.6971998"
       y2="9.2370005"
       gradientUnits="userSpaceOnUse"
       gradientTransform="matrix(1.5359162,0,0,1.5359162,-6.5015327,-6.4932524)" />
    <linearGradient
       inkscape:collect="always"
       xlink:href="#a"
       id="linearGradient16"
       y1="7.6978993"
       x1="9.2358007"
       x2="10.390701"
       y2="6.5429993"
       gradientUnits="userSpaceOnUse"
       gradientTransform="matrix(1.535916,0,0,1.5359163,-6.5015327,-6.4932524)" />
    <linearGradient
       inkscape:collect="always"
       xlink:href="#a"
       id="linearGradient17"
       y1="7.6945667"
       gradientTransform="matrix(1.5352511,0,0,1.5365815,-6.5015327,-6.4932524)"
       x1="6.5461345"
       x2="7.7005348"
       y2="6.5401669"
       gradientUnits="userSpaceOnUse" />
    <linearGradient
       inkscape:collect="always"
       xlink:href="#a"
       id="linearGradient18"
       y1="6.5444174"
       gradientTransform="matrix(1.5362484,0,0,1.535584,-6.5015327,-6.4932524)"
       x1="10.383753"
       x2="12.692254"
       y2="4.2359161"
       gradientUnits="userSpaceOnUse" />
    <linearGradient
       inkscape:collect="always"
       xlink:href="#a"
       id="linearGradient19"
       y1="6.5458326"
       gradientTransform="matrix(1.5365806,0,0,1.535252,-6.5015327,-6.4932524)"
       x1="4.2321687"
       x2="6.5411706"
       y2="4.2368302"
       gradientUnits="userSpaceOnUse" />
  </defs>
  <g
     id="g19"
     transform="translate(1.5007706,1.4886502)">
    <path
       d="M 1.1841918,1.1924721 V 11.831764 H 11.821947 V 1.1924721 Z M 2.7830805,2.3751276 H 10.223059 L 8.4490754,4.146039 H 4.5570637 L 2.7815446,2.3766635 Z M 2.3656186,2.7941255 4.1380658,4.5650369 V 8.4570485 L 2.3656186,10.232568 Z m 8.2755164,0 V 10.232568 L 8.8671518,8.4585844 V 4.5665728 Z M 4.7293936,4.7385954 H 8.27736 V 8.2850259 H 4.7293936 Z M 4.5572174,8.8763536 H 8.449229 l 1.772447,1.7709114 H 2.7847701 Z"
       fill="url(#b)"
       id="path4"
       style="fill:url(#b);stroke-width:1.53592" />
    <path
       d="M 11.22294,9.4649167 A 1.7724473,1.7724473 0 0 0 9.4504927,11.2389 1.7724473,1.7724473 0 0 0 11.22294,13.011347 1.7724473,1.7724473 0 0 0 12.998459,11.2389 1.7724473,1.7724473 0 0 0 11.22294,9.4664527 Z"
       fill="url(#a)"
       id="path5"
       style="fill:url(#linearGradient12);stroke-width:1.53592" />
    <path
       d="M 1.7739836,9.4649167 A 1.7724473,1.7724473 0 0 0 3.8808063e-7,11.2389 1.7724473,1.7724473 0 0 0 1.7724477,13.011347 1.7724473,1.7724473 0 0 0 3.5464309,11.2389 1.7724473,1.7724473 0 0 0 1.7739836,9.4664527 Z"
       fill="url(#a)"
       id="path6"
       style="fill:url(#linearGradient13);stroke-width:1.53592" />
    <path
       d="M 8.5704128,7.6940054 A 0.89083139,0.89083139 0 0 0 7.6838819,8.5805362 0.89083139,0.89083139 0 0 0 8.5704128,9.466299 0.89083139,0.89083139 0 0 0 9.4577115,8.5805362 0.89083139,0.89083139 0 0 0 8.5711806,7.6940054 a 0.89083139,0.89083139 0 0 0 -7.924e-4,0 z"
       fill="url(#a)"
       id="path7"
       style="fill:url(#linearGradient14);stroke-width:1.53592" />
    <path
       d="M 4.4341904,7.6940054 A 0.89083139,0.89083139 0 0 0 3.5484276,8.5805362 0.89083139,0.89083139 0 0 0 4.4341904,9.466299 0.89083139,0.89083139 0 0 0 5.3207213,8.5805362 0.89083139,0.89083139 0 0 0 4.4341904,7.6940054 Z"
       fill="url(#a)"
       id="path8"
       style="fill:url(#linearGradient15);stroke-width:1.53592" />
    <path
       d="M 8.5704128,3.5562471 A 0.89083139,0.89083139 0 0 0 7.6838819,4.4420099 0.89083139,0.89083139 0 0 0 8.5704128,5.3300767 0.89083139,0.89083139 0 0 0 9.4577115,4.4420099 0.89083139,0.89083139 0 0 0 8.5719487,3.5562471 a 0.89083139,0.89083139 0 0 0 -0.00158,0 z"
       fill="url(#a)"
       id="path9"
       style="fill:url(#linearGradient16);stroke-width:1.53592" />
    <path
       d="M 4.4341904,3.5562471 A 0.89083139,0.89083139 0 0 0 3.5484276,4.4420099 0.89083139,0.89083139 0 0 0 4.4341904,5.3300767 0.89083139,0.89083139 0 0 0 5.3207213,4.4420099 0.89083139,0.89083139 0 0 0 4.4341904,3.5562471 Z"
       fill="url(#a)"
       id="path10"
       style="fill:url(#linearGradient17);stroke-width:1.53592" />
    <path
       d="M 11.22294,0.01135256 A 1.7724473,1.7724473 0 0 0 9.4504927,1.7822639 1.7724473,1.7724473 0 0 0 11.221404,3.5562471 1.7724473,1.7724473 0 0 0 12.996923,1.7853358 1.7724473,1.7724473 0 0 0 11.22294,0.01288847 Z"
       fill="url(#a)"
       id="path11"
       style="fill:url(#linearGradient18);stroke-width:1.53592" />
    <path
       d="M 1.7739836,0.01135256 A 1.7724473,1.7724473 0 0 0 0.0015363,1.7822639 1.7724473,1.7724473 0 0 0 1.7739836,3.5562471 1.7724473,1.7724473 0 0 0 3.5495027,1.7822639 1.7724473,1.7724473 0 0 0 1.7739836,0.01135256 Z"
       fill="url(#a)"
       id="path12"
       style="fill:url(#linearGradient19);stroke-width:1.53592" />
  </g>
</svg>
