<?xml version="1.0" encoding="UTF-8" standalone="no"?>
<svg
   version="1.1"
   viewBox="0 0 16 16"
   id="svg6"
   sodipodi:docname="caja-actions.svg"
   width="16"
   height="16"
   inkscape:version="1.4.4 (unknown)"
   xmlns:inkscape="http://www.inkscape.org/namespaces/inkscape"
   xmlns:sodipodi="http://sodipodi.sourceforge.net/DTD/sodipodi-0.dtd"
   xmlns:xlink="http://www.w3.org/1999/xlink"
   xmlns="http://www.w3.org/2000/svg"
   xmlns:svg="http://www.w3.org/2000/svg">
  <sodipodi:namedview
     id="namedview6"
     pagecolor="#ffffff"
     bordercolor="#000000"
     borderopacity="0.25"
     inkscape:showpageshadow="2"
     inkscape:pageopacity="0.0"
     inkscape:pagecheckerboard="0"
     inkscape:deskcolor="#d1d1d1"
     inkscape:zoom="16.727495"
     inkscape:cx="10.103127"
     inkscape:cy="9.6547631"
     inkscape:window-width="1920"
     inkscape:window-height="994"
     inkscape:window-x="0"
     inkscape:window-y="0"
     inkscape:window-maximized="1"
     inkscape:current-layer="svg6" />
  <defs
     id="defs4">
    <linearGradient
       id="b"
       x1="1"
       x2="0"
       y1="1">
      <stop
         stop-color="#f300ff"
         offset="0"
         id="stop1" />
      <stop
         stop-color="#12dbb9"
         offset="1"
         id="stop2" />
    </linearGradient>
    <linearGradient
       id="a"
       y1="57.257427"
       gradientTransform="matrix(0.89401007,0,0,1.117661,1e-5,0.005998)"
       x1="7.162601"
       x2="64.425392"
       y2="-0.0053662071"
       gradientUnits="userSpaceOnUse">
      <stop
         stop-color="#ff2aff"
         offset="0"
         id="stop3" />
      <stop
         stop-color="#ffcb01"
         offset="1"
         id="stop4" />
    </linearGradient>
    <linearGradient
       inkscape:collect="always"
       xlink:href="#b"
       id="linearGradient6"
       x1="57.46386"
       y1="63.855999"
       x2="27.22628"
       gradientTransform="matrix(0.99955301,0,0,0.99964698,1e-5,0.005998)"
       y2="33.61842"
       gradientUnits="userSpaceOnUse" />
    <linearGradient
       inkscape:collect="always"
       xlink:href="#b"
       id="linearGradient7"
       x1="49.137001"
       y1="55.532001"
       x2="35.564999"
       y2="41.959999"
       gradientUnits="userSpaceOnUse"
       gradientTransform="matrix(0.9996,0,0,0.9996,1e-5,0.005998)" />
    <linearGradient
       inkscape:collect="always"
       xlink:href="#b"
       id="linearGradient9"
       x1="6.4034476"
       y1="32.000195"
       x2="57.596962"
       y2="32.000195"
       gradientUnits="userSpaceOnUse" />
  </defs>
  <g
     id="g7"
     transform="matrix(0.20312376,0,0,0.20312376,1.4999981,1.4999999)">
    <path
       d="M 51.199522,0.005998 12.804886,0.0079972 12.323079,0.02599 A 6.4004388,6.4004388 0 0 0 6.4034476,6.408436 v 51.189516 l 0.019992,0.481807 a 6.39744,6.39744 0 0 0 6.3794474,5.919631 h 26.2395 a 3.9984,3.9984 0 0 1 -0.761695,-1.052578 h -0.336866 l -0.34986,-2.09916 A 12.9948,12.9948 0 0 1 37.16014,60.669723 l -1.063574,0.755697 a 3.2487,3.2487 0 0 1 -1.897241,0.612755 c -0.869652,0 -1.701319,-0.34986 -2.311075,-0.959616 L 30.070977,59.261286 A 3.2487,3.2487 0 0 1 29.177334,57.605949 H 12.803886 V 44.801073 H 27.63795 a 3.2487,3.2487 0 0 1 1.29948,-0.52579 l 1.236506,-0.208916 q 0.09596,-0.252899 0.204918,-0.501799 l -0.763695,-1.071572 a 3.278688,3.278688 0 0 1 0.236905,-4.086364 H 12.798888 V 25.601756 h 38.394636 v 9.934024 c 0.609756,0.132947 1.172531,0.439824 1.618353,0.886646 l 1.819272,1.821271 0.293882,0.292883 v 0.343862 c 0.694722,1.101559 0.839664,2.482007 0.06098,3.57457 l -0.745702,1.044582 q 0.107957,0.245901 0.206917,0.4978 l 1.183527,0.202919 h 0.002 l 0.08197,0.01299 c 0.744702,0.12495 1.39944,0.501799 1.878249,1.032587 V 6.4014388 l -0.01999,-0.479808 A 6.4004388,6.4004388 0 0 0 51.192525,4e-7 Z M 12.804886,6.4054372 H 51.199522 V 19.210313 H 12.804886 Z m 15.9936,3.1997196 -0.37485,0.02499 c -3.961415,0.4978012 -3.617552,6.3444612 0.37485,6.3744492 h 6.401438 l 0.37485,-0.02299 c 3.983406,-0.480807 3.637545,-6.3654526 -0.37485,-6.3774478 z m 0,19.2023162 c -4.166333,0.09996 -4.166333,6.300479 0,6.399439 h 6.401438 c 4.166333,-0.09996 4.166333,-6.300479 0,-6.399439 z m 28.798476,23.19072 c -0.29988,0.307877 -0.662735,0.564774 -1.058576,0.767693 v 0.337864 l -0.833667,0.137945 -1.265493,0.212915 a 12.9948,12.9948 0 0 1 -0.206918,0.4998 l 0.745702,1.04958 a 3.278688,3.278688 0 0 1 -0.352859,4.206317 l -1.82327,1.825269 a 3.2726904,3.2726904 0 0 1 -4.214314,0.34986 l -1.039584,-0.743702 q -0.245901,0.107957 -0.496801,0.206917 l -0.216913,1.265494 v 0.002 a 3.268692,3.268692 0 0 1 -1.036585,1.884246 h 5.39784 l 0.479808,-0.01999 a 6.4004388,6.4004388 0 0 0 5.92163,-6.380447 z"
       fill="url(#a)"
       id="path4"
       style="fill:url(#linearGradient9);stroke-width:0.9996;fill-opacity:1" />
    <path
       d="m 40.98361,33.61255 a 2.27409,2.27409 0 0 0 -2.239104,1.895242 l -0.311875,1.835265 q -0.781687,0.264894 -1.522391,0.638745 l -1.47541,-1.061576 a 2.259096,2.259096 0 0 0 -1.321471,-0.42383 c -0.603758,0 -1.184526,0.237905 -1.607357,0.669732 l -1.826269,1.821271 a 2.279088,2.279088 0 0 0 -0.246901,2.922831 l 1.081567,1.517392 a 11.9952,11.9952 0 0 0 -0.622751,1.529388 l -1.784286,0.30188 a 2.2730904,2.2730904 0 0 0 -1.893242,2.239104 v 2.578968 c 0,1.106557 0.803678,2.056177 1.895242,2.239104 l 1.835265,0.311875 q 0.266893,0.779688 0.640744,1.519392 l -1.058577,1.472411 -0.002,0.002 a 2.269092,2.269092 0 0 0 0.247901,2.924829 l 1.821271,1.821272 a 2.269092,2.269092 0 0 0 1.605358,0.667732 c 0.472811,0 0.930627,-0.14794 1.313474,-0.42383 l 1.515394,-1.077569 q 0.712715,0.34986 1.462415,0.601759 l 0.29988,1.808277 h 0.003 a 2.269092,2.269092 0 0 0 2.237105,1.895241 h 2.584966 a 2.2750896,2.2750896 0 0 0 2.239104,-1.895241 l 0.307877,-1.809276 a 11.9952,11.9952 0 0 0 1.52439,-0.631747 l 1.489404,1.065573 a 2.269092,2.269092 0 0 0 2.924829,-0.243902 l 1.823271,-1.82527 c 0.779688,-0.779688 0.889644,-2.018192 0.246901,-2.920831 L 53.10576,54.08136 q 0.367853,-0.741703 0.629748,-1.52439 l 1.809276,-0.302879 v -0.002 a 2.269092,2.269092 0 0 0 1.893243,-2.237105 v -2.570971 a 2.2491,2.2491 0 0 0 -1.879248,-2.245101 h -0.003 l -1.807277,-0.307877 a 11.9952,11.9952 0 0 0 -0.631747,-1.52439 l 1.065573,-1.491403 c 0.640744,-0.89964 0.539784,-2.142143 -0.245901,-2.922831 v -0.002 l -1.821271,-1.82127 A 2.269092,2.269092 0 0 0 50.508798,36.46141 c -0.471811,0 -0.929628,0.147941 -1.313474,0.42383 l -1.497401,1.065574 a 11.9952,11.9952 0 0 0 -1.596361,-0.658736 l -0.30088,-1.784286 a 2.2750896,2.2750896 0 0 0 -2.241103,-1.893243 z m 0.261895,2.562974 h 2.077169 l 0.387845,2.306078 c 0.08497,0.4988 0.454818,0.909636 0.951619,1.034586 a 9.4962,9.4962 0 0 1 2.506997,1.028588 c 0.432827,0.254898 0.981607,0.234906 1.395441,-0.05698 l 0.002,-0.002 1.907236,-1.372451 1.472411,1.472411 -1.366453,1.917232 a 1.279488,1.279488 0 0 0 -0.05898,1.39944 v 0.004 a 9.39624,9.39624 0 0 1 1.015593,2.442023 c 0.123951,0.495801 0.532787,0.867652 1.032587,0.945621 l 2.321071,0.391843 v 1.870252 h -0.006 v 0.206917 l -2.32507,0.386845 c -0.4998,0.08497 -0.904638,0.457817 -1.028588,0.944622 a 9.29628,9.29628 0 0 1 -1.015594,2.444022 l -0.002,0.002 c -0.253899,0.432826 -0.232907,0.982606 0.05898,1.395441 v 0.002 l 1.368453,1.92523 -1.472411,1.472411 -1.917233,-1.364454 a 1.279488,1.279488 0 0 0 -1.39944,-0.05998 l -0.002,0.002 h -0.002 A 9.39624,9.39624 0 0 1 44.705121,57.92882 1.269492,1.269492 0 0 0 43.7575,58.963406 l -0.391843,2.319072 h -2.07517 l -0.388844,-2.32507 v -0.002 A 1.279488,1.279488 0 0 0 39.961019,57.92882 h -0.004 a 9.69612,9.69612 0 0 1 -2.395042,-0.982607 1.29948,1.29948 0 0 0 -0.642743,-0.171931 c -0.254898,0 -0.519792,0.07497 -0.7497,0.244902 l -1.933226,1.37345 -1.469412,-1.472411 1.357457,-1.907237 0.002,-0.002 c 0.293882,-0.417833 0.312875,-0.967613 0.05698,-1.401439 l -0.002,-0.004 a 9.19632,9.19632 0 0 1 -1.026589,-2.437025 l -0.002,-0.008 a 1.29948,1.29948 0 0 0 -1.022591,-0.937625 h -0.002 L 29.78509,49.825056 v -2.075169 l 2.306077,-0.386845 c 0.4998,-0.08497 0.909636,-0.456818 1.034586,-0.952619 v -0.002 a 9.39624,9.39624 0 0 1 0.997601,-2.44902 1.279488,1.279488 0 0 0 -0.06697,-1.394442 l -1.376449,-1.937225 1.472411,-1.469412 1.907236,1.359456 v 0.002 c 0.417833,0.293882 0.967613,0.312875 1.40144,0.05698 l 0.002,-0.002 h 0.002 a 9.29628,9.29628 0 0 1 2.439024,-1.026589 l 0.004,-0.002 h 0.002 c 0.479808,-0.131948 0.851659,-0.527789 0.937624,-1.02459 z"
       fill="url(#b)"
       id="path5"
       style="fill:url(#linearGradient6);stroke-width:0.9996" />
    <path
       d="m 42.33307,41.949214 c -3.738504,0 -6.782286,3.044782 -6.782286,6.782286 0,3.737504 3.043782,6.784285 6.782286,6.784285 3.738504,0 6.784285,-3.045781 6.784285,-6.784285 0,-3.738504 -3.046781,-6.782286 -6.784285,-6.782286 m 0,2.568972 c 2.329068,0 4.213314,1.884246 4.213314,4.213314 0,2.329068 -1.884246,4.215313 -4.213314,4.215313 -2.329068,0 -4.213314,-1.885245 -4.213314,-4.215313 a 4.208316,4.208316 0 0 1 4.213314,-4.213314"
       fill="url(#b)"
       id="path6"
       style="fill:url(#linearGradient7);stroke-width:0.9996" />
  </g>
</svg>
