<?xml version="1.0" encoding="UTF-8" standalone="no"?>
<svg
   height="16"
   width="16"
   version="1.1"
   id="svg786"
   sodipodi:docname="preferences-system-login.svg"
   inkscape:version="1.4.4 (unknown)"
   xmlns:inkscape="http://www.inkscape.org/namespaces/inkscape"
   xmlns:sodipodi="http://sodipodi.sourceforge.net/DTD/sodipodi-0.dtd"
   xmlns:xlink="http://www.w3.org/1999/xlink"
   xmlns="http://www.w3.org/2000/svg"
   xmlns:svg="http://www.w3.org/2000/svg">
  <defs
     id="defs790">
    <linearGradient
       id="linearGradient3"
       inkscape:collect="always">
      <stop
         style="stop-color:#00ccff;stop-opacity:1"
         offset="0"
         id="stop3" />
      <stop
         style="stop-color:#8d5fd3;stop-opacity:1"
         offset="1"
         id="stop5" />
    </linearGradient>
    <linearGradient
       id="linearGradient4903"
       x1="13.286"
       x2="13.275"
       y1="1.9581"
       y2="2.8476"
       gradientUnits="userSpaceOnUse">
      <stop
         stop-color="#a3be8c"
         offset="0"
         id="stop4899" />
      <stop
         stop-color="#97b67c"
         offset="1"
         id="stop4901"
         style="stop-color:#64844a;stop-opacity:1;" />
    </linearGradient>
    <linearGradient
       id="a-3"
       x1="428.81601"
       x2="388.86499"
       y1="547.63397"
       y2="499.67899"
       gradientTransform="matrix(0.4500002,0,0,0.44685936,-172.85657,-223.00208)"
       gradientUnits="userSpaceOnUse">
      <stop
         stop-color="#bdc3c7"
         offset="0"
         id="stop2193"
         style="stop-color:#ff99ff;stop-opacity:1;" />
      <stop
         stop-color="#eff0f1"
         offset="1"
         id="stop2195"
         style="stop-color:#ffccaa;stop-opacity:1" />
    </linearGradient>
    <linearGradient
       id="c-3"
       y1="521.15002"
       x1="394.22"
       y2="533.40997"
       gradientUnits="userSpaceOnUse"
       x2="416.85001"
       gradientTransform="translate(-12.764,-10.07)">
      <stop
         stop-color="#292c2f"
         id="stop225" />
      <stop
         offset="1"
         stop-opacity="0"
         id="stop227" />
    </linearGradient>
    <linearGradient
       id="linearGradient1889"
       gradientUnits="userSpaceOnUse"
       x1="19.915001"
       x2="33.915001"
       y1="-5.5933328"
       y2="8.4066668"
       gradientTransform="translate(-43.932612,-24.930416)">
      <stop
         offset="0"
         stop-color="#292c2f"
         id="stop743-6" />
      <stop
         offset="1"
         stop-opacity="0"
         id="stop745-7" />
    </linearGradient>
    <linearGradient
       id="linearGradient1893"
       gradientUnits="userSpaceOnUse"
       x1="6.9150009"
       x2="6.9150009"
       y1="18.041945"
       y2="9.8719463"
       gradientTransform="translate(-43.932612,-28.932366)">
      <stop
         offset="0"
         stop-color="#eff0f1"
         id="stop738-5" />
      <stop
         offset="1"
         stop-color="#fcfcfc"
         id="stop740-3" />
    </linearGradient>
    <linearGradient
       id="a-2"
       gradientUnits="userSpaceOnUse"
       x1="9.7101107"
       x2="16.78154"
       y1="7.142858"
       y2="14.214287">
      <stop
         offset="0"
         stop-color="#292c2f"
         id="stop204" />
      <stop
         offset="1"
         stop-opacity="0"
         id="stop206" />
    </linearGradient>
    <linearGradient
       id="b-7"
       gradientUnits="userSpaceOnUse"
       x1="8"
       x2="8"
       y1="13"
       y2="5">
      <stop
         offset="0"
         stop-color="#eff0f1"
         id="stop209" />
      <stop
         offset="1"
         stop-color="#fcfcfc"
         id="stop211" />
    </linearGradient>
    <linearGradient
       id="linearGradient6495"
       x1="12.05"
       x2="12.066"
       y1="1.9716001"
       y2="2.8515"
       gradientUnits="userSpaceOnUse">
      <stop
         stop-color="#ebcb8b"
         offset="0"
         id="stop15-9" />
      <stop
         stop-color="#eac57b"
         offset="1"
         id="stop17-3"
         style="stop-color:#ba861e;stop-opacity:1;" />
    </linearGradient>
    <linearGradient
       id="linearGradient6567"
       x1="13.286"
       x2="13.275"
       y1="1.9581"
       y2="2.8476"
       gradientUnits="userSpaceOnUse">
      <stop
         stop-color="#a3be8c"
         offset="0"
         id="stop20" />
      <stop
         stop-color="#97b67c"
         offset="1"
         id="stop22" />
    </linearGradient>
    <linearGradient
       id="linearGradient6639"
       x1="14.461"
       x2="14.467"
       y1="1.9502"
       y2="2.8203001"
       gradientUnits="userSpaceOnUse">
      <stop
         stop-color="#bf616a"
         offset="0"
         id="stop25" />
      <stop
         stop-color="#b54a55"
         offset="1"
         id="stop27" />
    </linearGradient>
    <filter
       id="filter30427"
       x="-0.1339518"
       y="-0.3388412"
       width="1.2679036"
       height="1.6776824"
       color-interpolation-filters="sRGB">
      <feGaussianBlur
         stdDeviation="0.48299559"
         id="feGaussianBlur37" />
    </filter>
    <linearGradient
       id="linearGradient29728"
       x1="8.9888"
       x2="8.9888"
       y1="6.2073998"
       y2="12.653"
       gradientUnits="userSpaceOnUse"
       gradientTransform="matrix(1.1275838,0,0,1.1275838,1.2427669,1.4742125)">
      <stop
         stop-color="#2e3440"
         offset="0"
         id="stop32" />
      <stop
         stop-color="#4c566a"
         offset="1"
         id="stop34" />
    </linearGradient>
    <linearGradient
       gradientTransform="matrix(0.44998122,0,0,0.44995571,-194.84947,-224.68601)"
       gradientUnits="userSpaceOnUse"
       x2="426.69501"
       y2="499.92099"
       y1="547.67499"
       id="a-6"
       x1="389.32001"
       xlink:href="#linearGradient6567">
      <stop
         stop-color="#18222a"
         style="stop-color:#1e2b35;stop-opacity:1"
         id="stop216" />
      <stop
         stop-color="#566069"
         offset="1"
         style="stop-color:#6d7983;stop-opacity:1"
         id="stop218" />
    </linearGradient>
    <linearGradient
       id="paint0_linear-3"
       x1="51"
       y1="10"
       x2="11"
       y2="50"
       gradientUnits="userSpaceOnUse"
       gradientTransform="matrix(0.28285562,0,0,0.28285562,35.144175,-10.240405)">
      <stop
         stop-color="#6EB4D9"
         id="stop229" />
      <stop
         offset="1"
         stop-color="#004E6E"
         id="stop231" />
    </linearGradient>
    <linearGradient
       id="paint1_linear-6"
       x1="8"
       y1="8"
       x2="48"
       y2="48"
       gradientUnits="userSpaceOnUse"
       gradientTransform="matrix(0.28285562,0,0,0.28285562,35.144175,-10.240405)">
      <stop
         stop-color="#44F0D3"
         id="stop234" />
      <stop
         offset="1"
         stop-color="#3DAEE9"
         id="stop236" />
    </linearGradient>
    <linearGradient
       id="A"
       y1="520.79797"
       x1="393.57101"
       y2="534.79797"
       x2="407.57101"
       gradientUnits="userSpaceOnUse"
       gradientTransform="translate(-425.56706,-545.39021)">
      <stop
         stop-color="#383e51"
         id="stop2" />
      <stop
         offset="1"
         stop-color="#655c6f"
         stop-opacity="0"
         id="stop4" />
    </linearGradient>
    <linearGradient
       id="D"
       x1="400.57101"
       y1="542.79797"
       x2="400.57101"
       y2="517.79797"
       gradientUnits="userSpaceOnUse"
       gradientTransform="translate(-425.56706,-545.39021)">
      <stop
         stop-color="#7cbaf8"
         id="stop17" />
      <stop
         offset="1"
         stop-color="#f4fcff"
         id="stop19" />
    </linearGradient>
    <linearGradient
       id="c-36"
       gradientUnits="userSpaceOnUse"
       x1="11.072659"
       x2="10.958864"
       y1="19.88957"
       y2="1.993852"
       gradientTransform="matrix(1.888889,0,0,1.888889,-119.04897,29.730695)">
      <stop
         offset="0"
         stop-color="#197cf1"
         id="stop12" />
      <stop
         offset="1"
         stop-color="#21c9fb"
         id="stop14" />
    </linearGradient>
    <linearGradient
       id="linearGradient6495-3"
       x1="12.05"
       x2="12.066"
       y1="1.9716001"
       y2="2.8515"
       gradientUnits="userSpaceOnUse">
      <stop
         stop-color="#ebcb8b"
         offset="0"
         id="stop15-9-6" />
      <stop
         stop-color="#eac57b"
         offset="1"
         id="stop17-3-7" />
    </linearGradient>
    <linearGradient
       inkscape:collect="always"
       xlink:href="#linearGradient3"
       id="linearGradient5"
       x1="0"
       y1="58.419998"
       x2="45.714287"
       y2="18.782499"
       gradientUnits="userSpaceOnUse"
       gradientTransform="matrix(-0.21946879,0,0,-0.22705769,14.546,14.764714)" />
    <linearGradient
       id="e-8">
      <stop
         offset="0"
         id="stop232" />
      <stop
         offset="1"
         stop-opacity="0"
         id="stop234-9" />
    </linearGradient>
    <linearGradient
       id="c-361">
      <stop
         offset="0"
         stop-color="#c6cdd1"
         id="stop226"
         style="stop-color:#66767f;stop-opacity:1;" />
      <stop
         offset="1"
         stop-color="#e0e5e7"
         id="stop228"
         style="stop-color:#313b3f;stop-opacity:1;" />
    </linearGradient>
    <linearGradient
       inkscape:collect="always"
       xlink:href="#linearGradient3"
       id="linearGradient6"
       x1="5.1860862"
       y1="31.053118"
       x2="17.186087"
       y2="31.053118"
       gradientUnits="userSpaceOnUse" />
    <linearGradient
       inkscape:collect="always"
       xlink:href="#linearGradient3"
       id="linearGradient1"
       gradientUnits="userSpaceOnUse"
       x1="5.1860862"
       y1="31.053118"
       x2="17.186087"
       y2="31.053118" />
    <linearGradient
       inkscape:collect="always"
       xlink:href="#linearGradient3"
       id="linearGradient2"
       gradientUnits="userSpaceOnUse"
       x1="5.1860862"
       y1="31.053118"
       x2="17.186087"
       y2="31.053118" />
    <linearGradient
       inkscape:collect="always"
       xlink:href="#linearGradient3"
       id="linearGradient4"
       gradientUnits="userSpaceOnUse"
       x1="5.1860862"
       y1="31.053118"
       x2="17.186087"
       y2="31.053118" />
    <linearGradient
       inkscape:collect="always"
       xlink:href="#linearGradient3"
       id="linearGradient7"
       gradientUnits="userSpaceOnUse"
       x1="5.1860862"
       y1="31.053118"
       x2="17.186087"
       y2="31.053118" />
    <linearGradient
       inkscape:collect="always"
       xlink:href="#linearGradient3"
       id="linearGradient8"
       gradientUnits="userSpaceOnUse"
       x1="5.1860862"
       y1="31.053118"
       x2="17.186087"
       y2="31.053118" />
  </defs>
  <sodipodi:namedview
     id="namedview788"
     pagecolor="#ffffff"
     bordercolor="#666666"
     borderopacity="1.0"
     inkscape:showpageshadow="2"
     inkscape:pageopacity="0.0"
     inkscape:pagecheckerboard="0"
     inkscape:deskcolor="#d1d1d1"
     showgrid="false"
     inkscape:zoom="16"
     inkscape:cx="0"
     inkscape:cy="17.15625"
     inkscape:window-width="1920"
     inkscape:window-height="994"
     inkscape:window-x="0"
     inkscape:window-y="0"
     inkscape:window-maximized="1"
     inkscape:current-layer="svg786">
    <inkscape:grid
       id="grid1"
       units="px"
       originx="0"
       originy="0"
       spacingx="1"
       spacingy="1"
       empcolor="#0099e5"
       empopacity="0.30196078"
       color="#0099e5"
       opacity="0.14901961"
       empspacing="5"
       dotted="false"
       gridanglex="30"
       gridanglez="30"
       visible="false" />
  </sodipodi:namedview>
  <linearGradient
     id="a"
     gradientTransform="matrix(0.41666647,0,0,0.54999974,-188.65687,-279.08879)"
     gradientUnits="userSpaceOnUse"
     x1="418.16971"
     x2="384.57144"
     y1="503.07938"
     y2="531.45813">
    <stop
       offset="0"
       stop-color="#1abc9c"
       id="stop719" />
    <stop
       offset="1"
       stop-color="#2980b9"
       id="stop721" />
  </linearGradient>
  <linearGradient
     id="b"
     gradientUnits="userSpaceOnUse"
     x1="29.85095"
     x2="54.317608"
     y1="22.348566"
     y2="28.506302"
     gradientTransform="matrix(0.45454545,0,0,0.58333277,-4.4545431,-1.5000305)">
    <stop
       offset="0"
       stop-color="#cc4a5e"
       id="stop724" />
    <stop
       offset="1"
       stop-color="#aa478a"
       id="stop726" />
  </linearGradient>
  <linearGradient
     id="c"
     gradientUnits="userSpaceOnUse"
     x1="24.393862"
     x2="20.645596"
     xlink:href="#d"
     y1="41.223652"
     y2="25.34318"
     gradientTransform="matrix(0.45454545,0,0,0.58333277,-4.4545431,-1.5000305)" />
  <linearGradient
     id="d">
    <stop
       offset="0"
       stop-color="#334545"
       id="stop730" />
    <stop
       offset="1"
       stop-color="#536161"
       id="stop732" />
  </linearGradient>
  <linearGradient
     id="e"
     gradientTransform="matrix(-0.41666647,0,0,0.53472146,212.28397,-306.82071)"
     gradientUnits="userSpaceOnUse"
     x1="430.57141"
     x2="440.17142"
     xlink:href="#d"
     y1="569.97992"
     y2="562.49939" />
  <linearGradient
     id="f"
     gradientTransform="matrix(-0.41666647,0,0,0.53472146,190.40467,-283.78051)"
     gradientUnits="userSpaceOnUse"
     x1="430.57141"
     x2="440.17142"
     xlink:href="#d"
     y1="569.97992"
     y2="562.49939" />
  <linearGradient
     id="g"
     gradientTransform="matrix(-0.41666647,0,0,0.53472146,194.40467,-286.3305)"
     gradientUnits="userSpaceOnUse"
     x1="430.57141"
     x2="440.17142"
     xlink:href="#d"
     y1="569.97992"
     y2="562.49939" />
  <linearGradient
     id="h"
     gradientUnits="userSpaceOnUse"
     x1="6.9150009"
     x2="6.9150009"
     y1="18.041945"
     y2="9.8719463"
     gradientTransform="translate(-43.932612,-28.932366)">
    <stop
       offset="0"
       stop-color="#eff0f1"
       id="stop738" />
    <stop
       offset="1"
       stop-color="#fcfcfc"
       id="stop740" />
  </linearGradient>
  <linearGradient
     id="i"
     gradientUnits="userSpaceOnUse"
     x1="19.915001"
     x2="33.915001"
     y1="-5.5933328"
     y2="8.4066668"
     gradientTransform="translate(-43.932612,-24.930416)">
    <stop
       offset="0"
       stop-color="#292c2f"
       id="stop743" />
    <stop
       offset="1"
       stop-opacity="0"
       id="stop745" />
  </linearGradient>
  <g
     id="g9"
     transform="translate(0.47700004,0.50000005)">
    <path
       d="M 1.7004938,13.5 H 13.343312 C 14.006107,13.5 14.546,12.943711 14.546,12.257994 V 2.7420055 c 0,-0.6857146 -0.539893,-1.2420056 -1.202688,-1.2420056 H 1.7004938 c -0.6627954,0 -1.20049387,0.5585621 -1.20049387,1.2420056 V 12.257994 C 0.49999993,12.943711 1.0398926,13.5 1.7004938,13.5 Z M 13.490356,10.364333 H 1.5556448 V 2.7397349 c 0,-0.08401 0.065837,-0.152129 0.144849,-0.152129 H 13.343312 c 0.08118,0 0.147044,0.06811 0.147044,0.152129 z m -0.51575,1.47133 c 0,0.118075 -0.09216,0.2089 -0.201907,0.2089 h -0.49381 c -0.111924,0 -0.201908,-0.09309 -0.201908,-0.2089 0,-0.1158 0.09216,-0.208891 0.201908,-0.208891 h 0.49381 c 0.109728,0 0.201907,0.09307 0.201907,0.208891 z m -1.119288,0 c 0,0.118075 -0.08997,0.2089 -0.201918,0.2089 h -0.493798 c -0.11413,0 -0.201913,-0.09309 -0.201913,-0.2089 0,-0.1158 0.08997,-0.208891 0.201913,-0.208891 H 11.6534 c 0.111935,0 0.201918,0.09307 0.201918,0.208891 z m -1.12149,0 c 0,0.118075 -0.09216,0.2089 -0.20191,0.2089 h -0.493801 c -0.111933,0 -0.2019164,-0.09309 -0.2019164,-0.2089 0,-0.1158 0.092163,-0.208891 0.2019164,-0.208891 h 0.493801 c 0.109739,0 0.20191,0.09307 0.20191,0.208891 z"
       id="path1"
       style="fill:url(#linearGradient5);stroke-width:0.223231" />
    <g
       id="g8"
       transform="matrix(0.58525011,0,0,0.56187289,0.97634333,-10.871017)"
       style="fill:url(#linearGradient6)">
      <path
         d="m 12.347729,29.798269 c -0.966861,0.432169 -1.193787,0.393683 -2.322644,-0.05426 -2.2127114,-0.879477 -3.3389989,2.734945 -3.3389989,2.734945 2.926927,1.087041 5.9258539,1.104706 8.9999999,0.01764 0,0 -1.005427,-3.740597 -3.338357,-2.698354 z m -1.125001,-4.495152 c 1.218857,0 2.209497,0.97222 2.209497,2.16903 0,1.197443 -0.99064,2.169031 -2.209497,2.169031 -1.220144,0 -2.2101419,-0.971588 -2.2101419,-2.169031 0,-1.19681 0.9899979,-2.16903 2.2101419,-2.16903 z"
         id="path11"
         style="fill:url(#linearGradient1)" />
      <g
         fill-rule="nonzero"
         id="g10-2"
         transform="matrix(1.0107817,0,0,0.98392916,-5.9972026,5.37642)"
         style="fill:url(#linearGradient8);fill-opacity:1">
        <path
           d="m 11.064,30.327 0.225,-0.694 c 0.518,0.183 0.895,0.341 1.129,0.474 -0.062,-0.589 -0.094,-0.995 -0.098,-1.216 h 0.709 c -0.01,0.322 -0.047,0.726 -0.113,1.212 0.336,-0.17 0.721,-0.326 1.154,-0.47 l 0.225,0.694 c -0.414,0.137 -0.82,0.228 -1.217,0.274 0.199,0.173 0.479,0.481 0.84,0.924 l -0.586,0.415 c -0.189,-0.257 -0.412,-0.607 -0.67,-1.05 -0.241,0.459 -0.453,0.809 -0.635,1.05 L 11.45,31.525 c 0.378,-0.466 0.649,-0.774 0.812,-0.924 -0.421,-0.081 -0.82,-0.173 -1.198,-0.274 z"
           id="path8-4"
           style="fill:url(#linearGradient2);fill-opacity:1" />
        <path
           d="m 15.385,30.327 0.225,-0.694 c 0.518,0.183 0.894,0.341 1.129,0.474 -0.062,-0.589 -0.095,-0.995 -0.098,-1.216 h 0.709 c -0.01,0.322 -0.048,0.726 -0.113,1.212 0.336,-0.17 0.72,-0.326 1.154,-0.47 l 0.224,0.694 c -0.413,0.137 -0.819,0.228 -1.216,0.274 0.198,0.173 0.478,0.481 0.84,0.924 l -0.586,0.415 c -0.189,-0.257 -0.412,-0.607 -0.67,-1.05 -0.241,0.459 -0.453,0.809 -0.635,1.05 l -0.577,-0.415 c 0.378,-0.466 0.649,-0.774 0.811,-0.924 -0.42,-0.081 -0.819,-0.173 -1.197,-0.274 z"
           id="path9-7"
           style="fill:url(#linearGradient4);fill-opacity:1" />
        <path
           d="m 19.706,30.327 0.225,-0.694 c 0.517,0.183 0.894,0.341 1.128,0.474 -0.062,-0.589 -0.094,-0.995 -0.097,-1.216 h 0.708 c -0.01,0.322 -0.047,0.726 -0.112,1.212 0.335,-0.17 0.72,-0.326 1.153,-0.47 l 0.225,0.694 c -0.414,0.137 -0.819,0.228 -1.217,0.274 0.199,0.173 0.479,0.481 0.841,0.924 l -0.587,0.415 c -0.189,-0.257 -0.412,-0.607 -0.669,-1.05 -0.241,0.459 -0.453,0.809 -0.636,1.05 l -0.576,-0.415 c 0.378,-0.466 0.648,-0.774 0.811,-0.924 -0.42,-0.081 -0.819,-0.173 -1.197,-0.274 z"
           id="path10-6"
           style="fill:url(#linearGradient7);fill-opacity:1" />
      </g>
    </g>
  </g>
</svg>
