<?xml version="1.0" encoding="UTF-8" standalone="no"?>
<svg
   fill="none"
   viewBox="0 0 16 16"
   version="1.1"
   id="svg5"
   sodipodi:docname="xneur.svg"
   width="16"
   height="16"
   inkscape:version="1.4.4 (unknown)"
   xmlns:inkscape="http://www.inkscape.org/namespaces/inkscape"
   xmlns:sodipodi="http://sodipodi.sourceforge.net/DTD/sodipodi-0.dtd"
   xmlns:xlink="http://www.w3.org/1999/xlink"
   xmlns="http://www.w3.org/2000/svg"
   xmlns:svg="http://www.w3.org/2000/svg">
  <sodipodi:namedview
     id="namedview5"
     pagecolor="#ffffff"
     bordercolor="#000000"
     borderopacity="0.25"
     inkscape:showpageshadow="2"
     inkscape:pageopacity="0.0"
     inkscape:pagecheckerboard="0"
     inkscape:deskcolor="#d1d1d1"
     inkscape:zoom="23.65625"
     inkscape:cx="7.334214"
     inkscape:cy="12.745046"
     inkscape:window-width="1920"
     inkscape:window-height="994"
     inkscape:window-x="0"
     inkscape:window-y="0"
     inkscape:window-maximized="1"
     inkscape:current-layer="svg5" />
  <defs
     id="defs4">
    <linearGradient
       id="a"
       x1="31.67"
       x2="31.67"
       y1="53.990002"
       y2="10"
       gradientUnits="userSpaceOnUse"
       gradientTransform="matrix(1.103,0,0,1.103,-3.31,-3.307)">
      <stop
         offset="0"
         stop-color="#fda700"
         id="stop1"
         style="stop-color:#8d5fd3;stop-opacity:1" />
      <stop
         offset="1"
         stop-color="#ffde00"
         id="stop2" />
    </linearGradient>
    <linearGradient
       id="c"
       x1="31.67"
       x2="31.67"
       y1="53.990002"
       y2="10"
       gradientUnits="userSpaceOnUse"
       gradientTransform="matrix(1.103,0,0,1.103,-3.31,-3.307)"
       xlink:href="#a">
      <stop
         offset="0"
         stop-color="#fda700"
         id="stop3" />
      <stop
         offset="1"
         stop-color="#ffde00"
         id="stop4" />
    </linearGradient>
    <linearGradient
       inkscape:collect="always"
       xlink:href="#a"
       id="linearGradient6"
       x1="11.781189"
       y1="56.25169"
       x2="12.279547"
       y2="9.1264658"
       gradientUnits="userSpaceOnUse" />
  </defs>
  <g
     id="g5"
     transform="matrix(0.21884277,0,0,0.21636685,1.0003717,1.0789988)">
    <path
       fill="url(#a)"
       fill-rule="evenodd"
       d="m 43.09321,7.723 c -0.344136,0 -0.670624,0.15442 -0.890121,0.41914 l -9.162621,11.07412 c -5.230426,6.317984 -9.513375,11.61459 -9.513375,11.76901 0,0.15442 4.47818,5.899947 9.943545,12.77274 l 9.590585,12.05579 c 0.219497,0.27575 0.5515,0.435685 0.90446,0.435685 h 9.855305 c 8.287942,0 10.35717,-0.075 10.134364,-0.371711 -0.564736,-0.746731 -18.96057,-23.90201 -19.36868,-24.38733 -0.38605,-0.45223 0.446715,-1.560745 8.766644,-11.60356 5.060564,-6.11062 9.382118,-11.34987 9.602718,-11.62562 0.379432,-0.493041 -0.14339,-0.521719 -9.999798,-0.521719 H 43.09321 Z"
       clip-rule="evenodd"
       id="path4"
       style="fill:url(#a);stroke-width:1.103" />
    <path
       fill="url(#c)"
       d="M 4.424236,10.97685 C 3.722728,10.047021 4.688956,8.787395 5.774308,9.210947 l 23.74759,9.257479 c 0.148905,0.05846 0.185304,0.157729 0.08824,0.285677 -0.531646,0.695993 -2.534694,3.153477 -4.93041,6.037822 l -4.525609,5.45985 a 1.15815,1.15815 0 0 0 -0.01544,1.45596 l 4.31273,5.42676 a 1714.062,1714.062 0 0 1 5.166452,6.527554 c 0.18751,0.250381 -1.223227,2.230266 -4.608334,6.473507 l -4.532227,5.68045 c -0.219497,0.27575 -0.5515,0.435685 -0.903357,0.435685 H 0.690581 A 0.692684,0.692684 0 0 1 0.144596,55.133249 c 0.480908,-0.612165 4.98556,-6.273864 10.00421,-12.5742 3.336575,-4.193606 6.256216,-7.91954 7.825785,-9.977738 0.5515,-0.722465 0.587899,-2.663745 0.05515,-3.399446 C 15.24246,25.33791 8.186569,15.967925 4.418721,10.982365 Z"
       opacity="0.4"
       id="path5"
       style="fill:url(#linearGradient6);stroke-width:1.103;fill-opacity:1" />
  </g>
</svg>
